PathFileType	4	(X/Y/Z)	C:/Users/dbak576/Desktop/Duncan Bakke Modelling Files/Output/AB08/StaticAB08.trc	
DataRate	CameraRate	NumFrames	NumMarkers	Units	OrigDataRate	OrigDataStartFrame	OrigNumFrames	
200.00	200.00	5	42	mm	200.00	110	125	
Frame#	Time	LASI			RASI			LPSI			RPSI			LTH1			LTH2			LTH3			LTH4			LMFC			LLFC			LTB1			LTB2			LTB3			LTB4			LMMAL			LLMAL			LCAL			LToe			LMT1			LMT5			RTH1			RTH2			RTH3			RTH4			RMFC			RLFC			RTB1			RTB2			RTB3			RTB4			RMMAL			RLMAL			RCAL			RToe			RMT1			RMT5			C7			T10			LACR1			RACR1			CLAV			RBack			
		X1	Y1	Z1	X2	Y2	Z2	X3	Y3	Z3	X4	Y4	Z4	X5	Y5	Z5	X6	Y6	Z6	X7	Y7	Z7	X8	Y8	Z8	X9	Y9	Z9	X10	Y10	Z10	X11	Y11	Z11	X12	Y12	Z12	X13	Y13	Z13	X14	Y14	Z14	X15	Y15	Z15	X16	Y16	Z16	X17	Y17	Z17	X18	Y18	Z18	X19	Y19	Z19	X20	Y20	Z20	X21	Y21	Z21	X22	Y22	Z22	X23	Y23	Z23	X24	Y24	Z24	X25	Y25	Z25	X26	Y26	Z26	X27	Y27	Z27	X28	Y28	Z28	X29	Y29	Z29	X30	Y30	Z30	X31	Y31	Z31	X32	Y32	Z32	X33	Y33	Z33	X34	Y34	Z34	X35	Y35	Z35	X36	Y36	Z36	X37	Y37	Z37	X38	Y38	Z38	X39	Y39	Z39	X40	Y40	Z40	X41	Y41	Z41	X42	Y42	Z42	

110	0.545	353.05252	918.57617	972.66571	603.57526	916.50610	990.71320	417.04224	696.31189	1008.09546	543.12842	688.03864	1013.20428	335.14536	919.70428	681.07806	324.55362	897.24280	649.24988	370.86060	897.60419	601.48694	354.53549	909.36804	637.42828	442.81732	829.22693	508.64072	319.08447	800.67224	520.67004	289.24423	769.99731	428.47012	286.55289	760.08344	344.62595	301.07709	812.59888	341.19836	297.04932	805.22302	381.00003	383.33475	797.93939	121.27086	298.31146	774.36279	116.22264	338.76666	705.34595	52.27991	354.80997	1008.80865	46.07472	384.65634	920.37054	48.07111	262.92114	902.03131	40.27121	608.94684	918.12140	705.28845	598.55328	899.75134	642.50018	642.67090	861.41345	623.88647	650.07867	880.49994	678.56781	520.21509	829.31964	507.50671	646.30328	803.86487	531.22803	661.57556	815.46808	418.54263	652.61719	827.12701	381.39105	646.58942	831.84827	330.90540	678.68408	788.32629	335.18958	583.92047	799.70038	122.95467	671.33862	771.26355	113.53975	625.30115	700.56598	57.19508	617.51794	1003.93304	42.15934	586.48615	911.13922	42.12884	708.60242	891.57306	43.78267	447.52814	729.23035	1498.74939	453.59714	694.55304	1243.16150	286.15588	798.50232	1478.26941	607.83441	780.59314	1490.62317	458.19104	891.65955	1454.81885	569.79486	682.34595	1397.14026 
111	0.550	353.15186	918.57062	972.67554	603.64087	916.49811	990.72626	417.06186	696.27411	1008.10333	543.12469	688.03680	1013.19263	335.22150	919.65070	681.06000	324.53735	897.25598	649.24286	370.96368	897.60468	601.46429	354.58063	909.32013	637.40662	442.99454	829.23718	508.63202	319.10605	800.67126	520.67096	289.26053	769.90143	428.44244	286.50546	760.10754	344.62402	301.10953	812.59229	341.20132	297.02548	805.24359	381.02679	383.33292	797.92554	121.25103	298.30267	774.41431	116.21431	338.76883	705.34625	52.28120	354.87518	1008.80933	46.13923	384.65332	920.38129	48.05690	262.92258	902.03497	40.27024	608.97290	918.06012	705.24084	598.59308	899.67206	642.51965	642.72491	861.39893	623.87054	650.15662	880.50293	678.56482	520.23517	829.32892	507.50031	646.34143	803.86292	531.23242	661.57489	815.45337	418.52771	652.65015	827.08673	381.38419	646.67706	831.82184	330.90543	678.70502	788.33411	335.20502	583.92078	799.70020	122.95502	671.36365	771.31885	113.52249	625.28937	700.57092	57.21936	617.58008	1004.07611	42.32534	587.09772	911.16541	42.03801	708.62201	891.54694	43.78719	447.53192	729.31958	1498.76001	453.54669	694.46387	1243.18420	286.13147	798.57324	1478.26123	607.80609	780.65674	1490.61353	458.19806	891.72284	1454.80933	569.81799	682.46368	1397.13391 
112	0.555	353.20203	918.59009	972.63861	603.64923	916.44562	990.66754	417.11066	696.27753	1008.08966	543.21606	688.03992	1013.23071	335.27176	919.64154	681.04462	324.61584	897.26111	649.24640	371.01547	897.59332	601.51227	354.59082	909.28510	637.38239	442.99823	829.23682	508.63397	319.16629	800.65503	520.68774	289.26385	770.04437	428.45010	286.53705	760.09363	344.62750	301.18469	812.62946	341.24118	297.11011	805.20813	381.00195	383.35770	797.89856	121.25443	298.34259	774.41583	116.22913	338.79837	705.35516	52.29343	354.90634	1008.82556	46.13502	384.66058	920.38312	48.04449	262.90106	902.04883	40.26691	609.04053	918.05237	705.21118	598.61707	899.69403	642.49255	642.75122	861.36755	623.84021	650.19916	880.48743	678.57037	520.30334	829.41412	507.51218	646.37103	803.84113	531.22247	661.63934	815.41809	418.51151	652.64844	827.05634	381.36353	646.64929	831.87549	330.89108	678.69910	788.31683	335.16196	583.91931	799.63947	122.93372	671.36206	771.27966	113.51002	625.32574	700.54346	57.20187	617.51495	1003.94067	42.15456	587.02808	911.12012	42.03758	708.63184	891.53375	43.76725	447.53912	729.43848	1498.78528	453.60416	696.74353	1242.90723	286.11826	798.66333	1478.23547	607.79755	780.76880	1490.60266	458.19052	891.85022	1454.75110	569.82977	682.56219	1397.16528 
113	0.560	353.22556	918.60522	972.62811	603.71161	916.47668	990.67584	417.14441	696.29993	1008.12939	543.21985	688.04712	1013.24994	335.31030	919.64447	681.04205	324.67578	897.29138	649.27631	371.07391	897.58514	601.46600	354.70593	909.33289	637.39056	443.02097	829.23535	508.61496	319.16183	800.65564	520.68848	289.29376	769.93213	428.44485	286.57837	760.10229	344.62897	301.18811	812.57574	341.18814	297.07385	805.21387	381.01126	383.35977	797.91406	121.27656	298.35519	774.44696	116.22383	338.80579	705.35022	52.31407	354.90036	1008.82538	46.11517	384.65259	920.38812	48.05138	262.95532	902.08862	40.30243	609.05322	918.01379	705.21771	598.65027	899.62823	642.49847	642.81940	861.40186	623.85699	650.22394	880.42865	678.53680	520.30200	829.40997	507.50888	646.39410	803.83606	531.22516	661.65234	815.38641	418.51071	652.66071	827.08362	381.34915	646.71649	831.86298	330.87622	678.74274	788.34296	335.16785	583.96417	799.74536	122.94292	671.38519	771.27893	113.49574	625.32098	700.58899	57.21263	617.51770	1003.93463	42.16926	586.54004	911.25061	42.16451	708.66669	891.55859	43.77095	447.47693	729.52466	1498.77209	453.60367	696.74817	1242.90820	286.12067	798.77045	1478.24817	607.83691	780.90308	1490.60413	458.15775	891.94012	1454.72803	569.77167	682.61713	1397.19861 
114	0.565	353.35254	918.61053	972.62561	603.75201	916.40387	990.65283	417.20035	696.29346	1008.14697	543.26642	688.05505	1013.27863	335.37079	919.65881	681.05511	324.74081	897.26306	649.20599	371.14279	897.60040	601.49701	354.79935	909.34332	637.41541	443.07410	829.15326	508.59064	319.19077	800.64679	520.65149	289.30768	769.96857	428.45609	286.58490	760.11884	344.65228	301.21643	812.61609	341.23184	297.09409	805.32477	381.06738	383.38098	797.93103	121.25874	298.35428	774.45038	116.21899	338.79602	705.35675	52.32202	354.91504	1008.85846	46.16246	384.66467	920.39642	48.04021	262.95804	902.08618	40.30422	609.14465	917.98956	705.20166	598.68976	899.62463	642.46423	642.85535	861.36224	623.83569	650.30725	880.42603	678.54663	520.35468	829.38556	507.49829	646.43768	803.81995	531.23120	661.72052	815.41541	418.49741	652.72510	827.12793	381.34912	646.71619	831.81580	330.85422	678.76062	788.27014	335.16763	583.94513	799.70288	122.96544	671.38617	771.27631	113.49458	625.30817	700.58447	57.20358	617.61963	1004.12567	42.38037	587.15637	911.23090	42.04812	708.66003	891.55017	43.76458	447.48105	729.61945	1498.80627	453.54507	696.81195	1242.94666	286.08871	798.83801	1478.20337	607.83459	781.00806	1490.60229	458.19037	892.06915	1454.75916	569.79669	682.69519	1397.23254 
